<mxfile host="app.diagrams.net" modified="2023-05-30T10:35:55.649Z" agent="Mozilla/5.0 (Windows NT 10.0; WOW64) AppleWebKit/537.36 (KHTML, like Gecko) Chrome/108.0.5359.95 Safari/537.36" etag="LbScZog8DPUSiQO460PT" version="21.3.3" type="github">
  <diagram id="C5RBs43oDa-KdzZeNtuy" name="Page-1">
    <mxGraphModel dx="788" dy="581" grid="1" gridSize="10" guides="1" tooltips="1" connect="1" arrows="1" fold="1" page="1" pageScale="1" pageWidth="827" pageHeight="1169" math="0" shadow="0">
      <root>
        <mxCell id="WIyWlLk6GJQsqaUBKTNV-0" />
        <mxCell id="WIyWlLk6GJQsqaUBKTNV-1" parent="WIyWlLk6GJQsqaUBKTNV-0" />
        <mxCell id="87sOYWtt1EghXxEH-w2J-8" value="" style="edgeStyle=orthogonalEdgeStyle;rounded=0;orthogonalLoop=1;jettySize=auto;html=1;" edge="1" parent="WIyWlLk6GJQsqaUBKTNV-1" source="87sOYWtt1EghXxEH-w2J-0" target="87sOYWtt1EghXxEH-w2J-7">
          <mxGeometry relative="1" as="geometry" />
        </mxCell>
        <mxCell id="87sOYWtt1EghXxEH-w2J-9" style="edgeStyle=orthogonalEdgeStyle;rounded=0;orthogonalLoop=1;jettySize=auto;html=1;" edge="1" parent="WIyWlLk6GJQsqaUBKTNV-1" source="87sOYWtt1EghXxEH-w2J-0" target="87sOYWtt1EghXxEH-w2J-2">
          <mxGeometry relative="1" as="geometry" />
        </mxCell>
        <mxCell id="87sOYWtt1EghXxEH-w2J-0" value="工序价格档案" style="rounded=0;whiteSpace=wrap;html=1;" vertex="1" parent="WIyWlLk6GJQsqaUBKTNV-1">
          <mxGeometry x="60" y="240" width="120" height="60" as="geometry" />
        </mxCell>
        <mxCell id="87sOYWtt1EghXxEH-w2J-19" value="" style="edgeStyle=orthogonalEdgeStyle;rounded=0;orthogonalLoop=1;jettySize=auto;html=1;" edge="1" parent="WIyWlLk6GJQsqaUBKTNV-1" source="87sOYWtt1EghXxEH-w2J-1" target="87sOYWtt1EghXxEH-w2J-18">
          <mxGeometry relative="1" as="geometry" />
        </mxCell>
        <mxCell id="87sOYWtt1EghXxEH-w2J-1" value="&lt;p class=&quot;MsoNormal&quot;&gt;&lt;b&gt;生产成本单价&lt;/b&gt;&lt;/p&gt;" style="rounded=1;whiteSpace=wrap;html=1;" vertex="1" parent="WIyWlLk6GJQsqaUBKTNV-1">
          <mxGeometry x="300" y="410" width="120" height="60" as="geometry" />
        </mxCell>
        <mxCell id="87sOYWtt1EghXxEH-w2J-2" value="生产成本内部结算价" style="rounded=0;whiteSpace=wrap;html=1;" vertex="1" parent="WIyWlLk6GJQsqaUBKTNV-1">
          <mxGeometry x="300" y="240" width="120" height="60" as="geometry" />
        </mxCell>
        <mxCell id="87sOYWtt1EghXxEH-w2J-7" value="新增5个辅料信息，校验逻辑" style="shape=document;whiteSpace=wrap;html=1;boundedLbl=1;" vertex="1" parent="WIyWlLk6GJQsqaUBKTNV-1">
          <mxGeometry x="60" y="320" width="120" height="80" as="geometry" />
        </mxCell>
        <mxCell id="87sOYWtt1EghXxEH-w2J-12" style="edgeStyle=orthogonalEdgeStyle;rounded=0;orthogonalLoop=1;jettySize=auto;html=1;" edge="1" parent="WIyWlLk6GJQsqaUBKTNV-1" source="87sOYWtt1EghXxEH-w2J-10" target="87sOYWtt1EghXxEH-w2J-2">
          <mxGeometry relative="1" as="geometry" />
        </mxCell>
        <mxCell id="87sOYWtt1EghXxEH-w2J-10" value="物料" style="whiteSpace=wrap;html=1;" vertex="1" parent="WIyWlLk6GJQsqaUBKTNV-1">
          <mxGeometry x="200" y="90" width="120" height="60" as="geometry" />
        </mxCell>
        <mxCell id="87sOYWtt1EghXxEH-w2J-13" style="edgeStyle=orthogonalEdgeStyle;rounded=0;orthogonalLoop=1;jettySize=auto;html=1;entryX=0.5;entryY=0;entryDx=0;entryDy=0;" edge="1" parent="WIyWlLk6GJQsqaUBKTNV-1" source="87sOYWtt1EghXxEH-w2J-11" target="87sOYWtt1EghXxEH-w2J-2">
          <mxGeometry relative="1" as="geometry" />
        </mxCell>
        <mxCell id="87sOYWtt1EghXxEH-w2J-11" value="工艺路线" style="whiteSpace=wrap;html=1;" vertex="1" parent="WIyWlLk6GJQsqaUBKTNV-1">
          <mxGeometry x="370" y="90" width="120" height="60" as="geometry" />
        </mxCell>
        <mxCell id="87sOYWtt1EghXxEH-w2J-14" value="" style="shape=flexArrow;endArrow=classic;html=1;rounded=0;" edge="1" parent="WIyWlLk6GJQsqaUBKTNV-1">
          <mxGeometry width="50" height="50" relative="1" as="geometry">
            <mxPoint x="359.5" y="300" as="sourcePoint" />
            <mxPoint x="359.5" y="410" as="targetPoint" />
            <Array as="points">
              <mxPoint x="359.5" y="360" />
            </Array>
          </mxGeometry>
        </mxCell>
        <mxCell id="87sOYWtt1EghXxEH-w2J-15" value="&lt;p class=&quot;MsoNormal&quot;&gt;&lt;font face=&quot;宋体&quot;&gt;原生产成本单价&lt;/font&gt;&lt;font face=&quot;Calibri&quot;&gt;/&lt;/font&gt;&lt;font face=&quot;宋体&quot;&gt;产品合格率&lt;/font&gt;&lt;/p&gt;" style="shape=parallelogram;perimeter=parallelogramPerimeter;whiteSpace=wrap;html=1;fixedSize=1;" vertex="1" parent="WIyWlLk6GJQsqaUBKTNV-1">
          <mxGeometry x="370" y="310" width="120" height="60" as="geometry" />
        </mxCell>
        <mxCell id="87sOYWtt1EghXxEH-w2J-21" value="" style="edgeStyle=orthogonalEdgeStyle;rounded=0;orthogonalLoop=1;jettySize=auto;html=1;" edge="1" parent="WIyWlLk6GJQsqaUBKTNV-1" source="87sOYWtt1EghXxEH-w2J-18" target="87sOYWtt1EghXxEH-w2J-20">
          <mxGeometry relative="1" as="geometry" />
        </mxCell>
        <mxCell id="87sOYWtt1EghXxEH-w2J-18" value="委外订单阶梯价" style="whiteSpace=wrap;html=1;rounded=1;" vertex="1" parent="WIyWlLk6GJQsqaUBKTNV-1">
          <mxGeometry x="540" y="410" width="120" height="60" as="geometry" />
        </mxCell>
        <mxCell id="87sOYWtt1EghXxEH-w2J-20" value="委外订单" style="rounded=1;whiteSpace=wrap;html=1;" vertex="1" parent="WIyWlLk6GJQsqaUBKTNV-1">
          <mxGeometry x="540" y="520" width="120" height="60" as="geometry" />
        </mxCell>
        <mxCell id="87sOYWtt1EghXxEH-w2J-23" value="供应商先芯时，原币价格获取物料的阶梯价" style="shape=parallelogram;perimeter=parallelogramPerimeter;whiteSpace=wrap;html=1;fixedSize=1;" vertex="1" parent="WIyWlLk6GJQsqaUBKTNV-1">
          <mxGeometry x="670" y="460" width="120" height="60" as="geometry" />
        </mxCell>
        <mxCell id="87sOYWtt1EghXxEH-w2J-24" value="阶梯价" style="text;html=1;strokeColor=none;fillColor=none;align=center;verticalAlign=middle;whiteSpace=wrap;rounded=0;" vertex="1" parent="WIyWlLk6GJQsqaUBKTNV-1">
          <mxGeometry x="540" y="480" width="60" height="30" as="geometry" />
        </mxCell>
        <mxCell id="87sOYWtt1EghXxEH-w2J-27" value="新增或者修改" style="shape=parallelogram;perimeter=parallelogramPerimeter;whiteSpace=wrap;html=1;fixedSize=1;" vertex="1" parent="WIyWlLk6GJQsqaUBKTNV-1">
          <mxGeometry x="414" y="450" width="120" height="60" as="geometry" />
        </mxCell>
        <mxCell id="87sOYWtt1EghXxEH-w2J-28" value="" style="shape=flexArrow;endArrow=classic;html=1;rounded=0;" edge="1" parent="WIyWlLk6GJQsqaUBKTNV-1">
          <mxGeometry width="50" height="50" relative="1" as="geometry">
            <mxPoint x="420" y="269.5" as="sourcePoint" />
            <mxPoint x="560" y="269.5" as="targetPoint" />
            <Array as="points">
              <mxPoint x="480" y="269.5" />
            </Array>
          </mxGeometry>
        </mxCell>
        <mxCell id="87sOYWtt1EghXxEH-w2J-29" value="产品成名预估" style="rounded=0;whiteSpace=wrap;html=1;" vertex="1" parent="WIyWlLk6GJQsqaUBKTNV-1">
          <mxGeometry x="560" y="240" width="120" height="60" as="geometry" />
        </mxCell>
        <mxCell id="87sOYWtt1EghXxEH-w2J-32" style="edgeStyle=orthogonalEdgeStyle;rounded=0;orthogonalLoop=1;jettySize=auto;html=1;" edge="1" parent="WIyWlLk6GJQsqaUBKTNV-1" source="87sOYWtt1EghXxEH-w2J-31" target="87sOYWtt1EghXxEH-w2J-29">
          <mxGeometry relative="1" as="geometry" />
        </mxCell>
        <mxCell id="87sOYWtt1EghXxEH-w2J-31" value="BOM价格" style="rounded=0;whiteSpace=wrap;html=1;" vertex="1" parent="WIyWlLk6GJQsqaUBKTNV-1">
          <mxGeometry x="560" y="90" width="120" height="60" as="geometry" />
        </mxCell>
      </root>
    </mxGraphModel>
  </diagram>
</mxfile>
